<svg xmlns="http://www.w3.org/2000/svg" viewBox="0 0 1024 1024" fill="currentColor">
    <path d="M665.6 139.636364a186.181818 186.181818 0 0 1 186.181818 186.181818v435.2a113.477818 113.477818 0 0 1-168.727273 99.141818l-123.392-68.794182a93.090909 93.090909 0 0 0-90.670545 0L345.6 860.16A113.477818 113.477818 0 0 1 176.872727 761.018182V325.818182a186.181818 186.181818 0 0 1 186.181818-186.181818h302.545455z m0 74.472727H363.054545A111.709091 111.709091 0 0 0 251.345455 325.818182v435.2a39.005091 39.005091 0 0 0 57.995636 34.071273l123.392-68.794182a167.563636 167.563636 0 0 1 163.188364 0l123.345454 68.794182a39.005091 39.005091 0 0 0 58.042182-34.071273V325.818182a111.709091 111.709091 0 0 0-111.709091-111.709091z m4.375273 153.134545a37.236364 37.236364 0 0 1 4.375272 52.456728l-123.345454 145.640727c-2.234182 2.606545-2.234182 2.606545-4.654546 5.12a83.781818 83.781818 0 0 1-118.504727 0l-67.863273-67.909818a37.236364 37.236364 0 1 1 52.689455-52.596364l67.863273 67.816727a9.309091 9.309091 0 0 0 13.172363 0l0.465455-0.558545 123.345454-145.640727a37.236364 37.236364 0 0 1 52.456728-4.375273z"/>
</svg>