<svg viewBox="0 0 1024 1024" xmlns="http://www.w3.org/2000/svg">
    <path d="M580.15 677.86c-77.21 0-149.79-30.07-204.38-84.66-54.59-54.59-84.66-127.18-84.66-204.38 0-77.21 30.07-149.79 84.66-204.38 54.59-54.59 127.18-84.66 204.38-84.66 77.21 0 149.79 30.07 204.38 84.66 54.59 54.59 84.66 127.18 84.66 204.38 0 77.21-30.07 149.79-84.66 204.38-54.59 54.59-127.18 84.66-204.38 84.66z m0-518.09c-126.29 0-229.04 102.75-229.04 229.04s102.75 229.04 229.04 229.04S809.19 515.1 809.19 388.81 706.44 159.77 580.15 159.77z"
          fill="currentColor"/>
    <path d="M873.09 724.18L761.22 612.31c-11.72-11.72-11.72-30.71 0-42.43 11.72-11.72 30.71-11.72 42.43 0l111.87 111.87c11.72 11.72 11.72 30.71 0 42.43-11.72 11.72-30.72 11.72-42.43 0z"
          fill="currentColor"/>
    <path d="M898 925.64H127.07c-16.57 0-30-13.43-30-30s13.43-30 30-30H898c16.57 0 30 13.43 30 30s-13.44 30-30 30z"
          fill="currentColor"/>
    <path d="M227.89 539.84H127.07c-16.57 0-30-13.43-30-30s13.43-30 30-30h100.82c16.57 0 30 13.43 30 30s-13.43 30-30 30z"
          fill="currentColor"/>
    <path d="M227.89 160.15H127.07c-16.57 0-30-13.43-30-30s13.43-30 30-30h100.82c16.57 0 30 13.43 30 30s-13.43 30-30 30z"
          fill="currentColor"/>
</svg>