<svg viewBox="0 0 1024 1024" xmlns="http://www.w3.org/2000/svg" fill="currentColor">
    <path d="M768 64v384h64V85.333333c0-46.933333-38.4-85.333333-85.333333-85.333333H85.333333C38.4 0 0 38.4 0 85.333333v789.333334c0 46.933333 38.4 85.333333 85.333333 85.333333h298.666667v-64H64V64h704zM1024 682.666667l-170.666667-170.666667-341.333333 341.333333v170.666667h170.666667l341.333333-341.333333z m-448 196.266666l81.066667 81.066667H576v-81.066667z m125.866667 36.266667l-81.066667-81.066667L853.333333 601.6l81.066667 81.066667-232.533333 232.533333z"></path>
    <path d="M384 128h320v64H384zM384 256h320v64H384zM384 384h320v64H384zM384 512h256v64H384zM384 640h192v64h-192zM320 128H128v192h192V128z m-64 128H192V192h64v64zM320 384H128v192h192v-192z m-64 128H192v-64h64v64zM128 832h192v-192H128v192z m64-128h64v64H192v-64z"></path>
</svg>