<svg xmlns="http://www.w3.org/2000/svg" viewBox="0 0 1024 1024" fill="currentColor">
    <path d="M763.720533 812.17357c-165.92603 139.106198-413.298024 117.491924-552.525995-48.299029-50.261731-59.856249-80.626295-131.732254-89.185228-207.424166l50.997488 0c13.247722 0 27.012214-7.890714 33.743522-19.297508l48.695049-82.412988 78.04961 147.228179c11.571546 21.818935 40.286542 20.292162 49.526997-2.587941l113.672946-281.811364 138.031726 363.949083c9.212826 24.312732 39.916105 24.87248 49.688679 0.517793l78.337159-195.337897 27.106358 47.128367c6.650467 11.570523 20.456914 19.528775 33.82641 19.528775l77.82039 0C891.175367 650.675386 844.674287 744.304833 763.720533 812.17357zM854.459141 224.554312C695.591877 35.376719 413.292396 10.69662 223.952096 169.440064c-64.790632 54.323233-111.849414 124.456546-137.608078 203.064882-4.742001 14.514575 3.188622 30.133298 17.703197 34.889625 14.541181 4.755304 30.173207-3.162016 34.929534-17.690918C161.532465 320.853565 202.731796 259.456217 259.547803 211.825406 425.461553 72.719208 672.844803 94.347808 812.060495 260.124436c60.607356 72.163553 90.698698 159.753447 91.705632 247.1264l-75.950809 0-44.169989-76.782757c-12.170181-21.151739-40.382733-19.066241-49.430806 3.488451l-74.043367 184.569646-137.948839-363.785354c-9.238408-24.394596-39.902802-24.77629-49.674353-0.557702L355.343589 544.686447l-74.112951-139.801023c-10.848069-20.442588-37.532825-20.932752-49.281403-1.075495l-62.935378 106.547665-69.819159 0c-2.656503-0.668219-5.464455-0.940418-8.338922-0.776689-1.703805 0.10847-3.367701 0.381693-4.974291 0.776689l-1.363044 0 0 0.367367c-12.007475 3.612271-20.442588 15.061021-19.652596 28.102035 5.641487 95.087659 41.348734 186.097442 103.930047 260.617669 158.868287 189.177594 441.153442 213.858716 630.509091 55.114249C988.645282 695.814446 1013.354034 413.745209 854.459141 224.554312z"/>
</svg>