<svg viewBox="0 0 1024 1024" xmlns="http://www.w3.org/2000/svg">
    <path d="M729.6 533.358c-66.121-38.4-153.6-17.116-192 49.005-38.4 66.195-17.042 153.6 49.006 192.074 21.43 12.8 47.03 19.163 70.436 19.163 49.08 0 96.037-25.6 121.637-68.242a138.971 138.971 0 0 0-49.079-192z m-14.921 153.6c-19.237 31.963-57.637 42.642-89.6 23.405a64.439 64.439 0 0 1-29.916-40.52 65.39 65.39 0 0 1 6.437-49.006 65.17 65.17 0 0 1 57.563-32.037c10.68 0 23.48 2.194 32.037 8.558 32.037 19.163 42.642 57.563 23.406 89.6z m230.4-136.558l-55.442-8.558a162.304 162.304 0 0 0-25.6-40.52l19.163-46.885a43.813 43.813 0 0 0-17.042-53.395L768 343.48a42.715 42.715 0 0 0-55.442 10.679L678.4 398.92c-17.042-2.121-32.037 0-49.006 0l-29.988-38.4a42.715 42.715 0 0 0-55.443-10.679l-100.205 55.516c-19.237 10.679-25.6 34.084-19.237 53.32l21.358 51.2c-4.316 4.243-6.437 10.68-10.679 14.922-4.242 8.558-10.679 19.237-14.921 27.794l-46.958 6.364c-21.358 2.12-36.279 21.284-36.279 42.642v115.2c0 21.358 14.995 40.521 36.28 42.642L426.714 768c6.364 14.921 17.043 29.842 27.722 44.837l-17.116 42.642a43.813 43.813 0 0 0 17.116 53.321l98.084 57.563a42.715 42.715 0 0 0 55.442-10.605L640 913.042c17.042 2.195 34.158 0 51.2-2.12l27.794 38.4A42.715 42.715 0 0 0 774.437 960l100.205-57.563c19.237-10.68 25.6-34.158 19.237-53.395l-19.237-51.2c2.195-4.242 6.437-8.484 8.558-12.8 6.437-10.679 10.679-19.163 14.921-29.842l49.079-6.363c21.358-2.195 36.279-21.358 36.279-42.716V590.994c-2.194-19.163-19.237-38.4-38.4-40.52z m-40.521 128l-66.195 8.558L832 710.363c-4.242 12.8-8.558 25.6-17.042 38.474-4.316 8.484-10.68 14.92-14.921 23.405l-12.874 17.116 25.6 64-51.2 29.842-40.52-51.2-23.406 4.242c-23.48 4.316-46.958 6.437-70.437 2.195l-21.358-4.316-42.642 53.394L512 857.6l25.6-59.758-17.042-17.042a186.66 186.66 0 0 1-36.28-59.758l-8.557-21.284-68.242-10.68v-57.636l66.121-8.484 6.437-21.358c4.242-12.8 8.484-23.406 17.042-36.279 4.242-8.558 10.679-17.042 17.042-23.406l14.921-17.115-25.6-64 51.2-29.842 40.521 53.32 23.48-4.315a244.297 244.297 0 0 1 68.315-2.12l21.284 4.315 44.837-55.516 51.2 29.916-25.6 61.879 14.921 17.042c14.921 17.042 27.794 36.279 36.279 57.563l8.558 21.358 70.363 10.679-4.242 53.321z m-561.08 224.037H117.322V115.2h782.921v183.442c0 21.358 17.116 38.4 38.4 38.4a38.254 38.254 0 0 0 38.4-38.4V83.163A42.789 42.789 0 0 0 934.4 40.521H85.358a42.789 42.789 0 0 0-42.716 42.642V934.4c0 23.406 19.237 42.642 42.716 42.642h258.12a38.254 38.254 0 0 0 38.4-38.4c0-21.284-17.115-36.205-38.4-36.205z m490.643-693.395a38.254 38.254 0 0 0-38.4-38.4h-576a38.254 38.254 0 0 0-38.4 38.4c0 21.358 17.042 38.4 38.4 38.4h578.121c19.237 0 36.28-17.042 36.28-38.4zM219.721 320a38.254 38.254 0 0 0-38.4 38.4c0 21.358 17.042 38.4 38.4 38.4H343.48a38.254 38.254 0 0 0 38.327-38.4 38.254 38.254 0 0 0-38.4-38.4H219.72z"
          fill="currentColor"/>
</svg>