<svg viewBox="0 0 1024 1024" xmlns="http://www.w3.org/2000/svg" fill="currentColor">
    <path d="M315.164444 551.253333H157.582222A158.151111 158.151111 0 0 0 0 708.835556v157.582222A158.151111 158.151111 0 0 0 157.582222 1024h157.582222a158.151111 158.151111 0 0 0 157.582223-157.582222v-157.582222a158.151111 158.151111 0 0 0-157.582223-157.582223z m78.506667 315.164445a79.075556 79.075556 0 0 1-78.506667 79.075555H157.582222a79.644444 79.644444 0 0 1-79.075555-79.075555v-157.582222a79.075556 79.075556 0 0 1 79.075555-78.506667h157.582222a78.506667 78.506667 0 0 1 78.506667 78.506667zM866.417778 0h-157.582222a158.151111 158.151111 0 0 0-157.582223 157.582222v157.582222a158.151111 158.151111 0 0 0 157.582223 157.582223h157.582222A158.151111 158.151111 0 0 0 1024 315.164444V157.582222A158.151111 158.151111 0 0 0 866.417778 0z m79.075555 315.164444a79.075556 79.075556 0 0 1-79.075555 78.506667h-157.582222a78.506667 78.506667 0 0 1-78.506667-78.506667V157.582222a79.075556 79.075556 0 0 1 78.506667-79.075555h157.582222a79.644444 79.644444 0 0 1 79.075555 79.075555z m-79.075555 236.088889h-157.582222a158.151111 158.151111 0 0 0-157.582223 157.582223v157.582222A158.151111 158.151111 0 0 0 708.835556 1024h157.582222A158.151111 158.151111 0 0 0 1024 866.417778v-157.582222a158.151111 158.151111 0 0 0-157.582222-157.582223z m79.075555 315.164445a79.644444 79.644444 0 0 1-79.075555 79.075555h-157.582222a79.075556 79.075556 0 0 1-78.506667-79.075555v-157.582222a78.506667 78.506667 0 0 1 78.506667-78.506667h157.582222a79.075556 79.075556 0 0 1 79.075555 78.506667zM315.164444 0H157.582222A158.151111 158.151111 0 0 0 0 157.582222v157.582222a158.151111 158.151111 0 0 0 157.582222 157.582223h157.582222a158.151111 158.151111 0 0 0 157.582223-157.582223V157.582222A158.151111 158.151111 0 0 0 315.164444 0z m78.506667 315.164444a78.506667 78.506667 0 0 1-78.506667 78.506667H157.582222a79.075556 79.075556 0 0 1-79.075555-78.506667V157.582222a79.644444 79.644444 0 0 1 79.075555-79.075555h157.582222a79.075556 79.075556 0 0 1 78.506667 79.075555z m0 0"></path>
</svg>