<svg xmlns="http://www.w3.org/2000/svg" viewBox="0 0 1024 1024" fill="currentColor">
    <path d="M960.74 565.3399999999999s-10.62 3.5999999999999996-12.239999999999998 3.5999999999999996h-76.92v338.4A84.6 84.6 0 0 1 786.98 992H575.48v-232.68a42.3 42.3 0 0 0-42.3-42.3h-42.36a42.3 42.3 0 0 0-42.3 42.3V992H237.01999999999998a84.6 84.6 0 0 1-84.6-84.6V569H70.57999999999998l-3.42-0.6C66.01999999999998 567.8 63.19999999999999 565.28 63.19999999999999 565.28a84.6 84.6 0 0 1 0-119.7L452.18 56.78000000000003a84.6 84.6 0 0 1 119.64 0l388.92 388.86c33 33.06 33 86.64 0 119.7z m-44.88-89.76L541.94 101.60000000000002a42.3 42.3 0 0 0-59.88 0L108.19999999999999 475.58a41.699999999999996 41.699999999999996 0 0 0-5.82 51.06h92.4v380.76c0 23.400000000000002 18.96 42.3 42.3 42.3h169.2v-190.38c0-46.74 37.92-84.6 84.6-84.6h42.36c46.68 0 84.6 37.86 84.6 84.6v190.38h169.2c23.400000000000002 0 42.3-18.96 42.3-42.3V526.64h92.4a41.699999999999996 41.699999999999996 0 0 0-5.82-51.06z m-255.78-134.94l-15-15a10.559999999999999 10.559999999999999 0 1 1 15-14.879999999999999l15 14.94a10.559999999999999 10.559999999999999 0 1 1-15 15zM527.8399999999999 212.90000000000003a22.14 22.14 0 0 0-31.380000000000003 0S335.29999999999995 374.3 309.68 399.8c-12.78 12.6-21.419999999999998 15.600000000000001-27.78 6.359999999999999-3.1799999999999997-4.56 5.22-13.8 5.22-13.8l195.11999999999998-195a42.3 42.3 0 0 1 59.82 0l75.6 75.53999999999999h-30l-59.82-59.94z"/>
    <path d="M605.44 269.76l-16-16a11.264 11.264 0 1 1 16-15.936l15.936 16a11.264 11.264 0 1 1-16 15.936z"/>
    <path d="M269.056 402.368a11.264 11.264 0 0 1 0-16l16-15.872a11.264 11.264 0 1 1 15.936 15.936l-16 15.936a11.264 11.264 0 0 1-15.936 0z"/>
</svg>